<?xml version="1.0" encoding="iso-8859-1"?>
<!-- Generator: Adobe Illustrator 19.0.0, SVG Export Plug-In . SVG Version: 6.00 Build 0)  -->
<svg version="1.1" id="Layer_1" xmlns="http://www.w3.org/2000/svg" x="0px" y="0px"
	 viewBox="0 0 512 512" style="enable-background:new 0 0 512 512;" xml:space="preserve">
<path fill="url(#paint0_linear)" d="M423.169,334.632c0,92.325-74.844,167.169-167.169,167.169S88.831,426.957,88.831,334.632
	C88.831,222.494,256,10.199,256,10.199S423.169,222.494,423.169,334.632z"/>
<defs>
	<linearGradient id="paint0_linear" x1="1" y1="1" x2="512" y2="512" gradientUnits="userSpaceOnUse">
		<stop offset="0.15937" stop-color="#7dd3fc"/>
		<stop offset="0.93739" stop-color="#0ea5e9"/>
	</linearGradient>
</defs>
<g>
	<path style="fill:#FFFFFF;" d="M267.093,103.012c-3.223,0-6.395-1.524-8.377-4.369c-1.938-2.78-3.836-5.485-5.688-8.108
		c-3.248-4.602-2.151-10.965,2.45-14.215c4.603-3.248,10.965-2.151,14.215,2.45c1.875,2.656,3.797,5.395,5.758,8.21
		c3.221,4.622,2.085,10.979-2.537,14.199C271.139,102.417,269.105,103.012,267.093,103.012z"/>
	<path style="fill:#FFFFFF;" d="M353.594,245.803c-3.756,0-7.369-2.083-9.148-5.675c-16.181-32.673-37.405-69.027-63.081-108.052
		c-3.096-4.706-1.792-11.03,2.914-14.127c4.706-3.096,11.03-1.79,14.126,2.914c26.132,39.717,47.773,76.798,64.319,110.213
		c2.5,5.048,0.434,11.166-4.613,13.666C356.658,245.461,355.115,245.803,353.594,245.803z"/>
</g>
</svg>
